<!DOCTYPE svg PUBLIC "-//W3C//DTD SVG 1.1//EN" "http://www.w3.org/Graphics/SVG/1.1/DTD/svg11.dtd">
<!-- Uploaded to: SVG Repo, www.svgrepo.com, Transformed by: SVG Repo Mixer Tools -->
<svg version="1.1" id="Icons" xmlns="http://www.w3.org/2000/svg" xmlns:xlink="http://www.w3.org/1999/xlink" viewBox="-3.2 -3.2 38.40 38.40" xml:space="preserve" width="800px" height="800px" fill="#" stroke="#">
<g id="SVGRepo_bgCarrier" stroke-width="0">
<path transform="translate(-3.2, -3.2), scale(1.2)" d="M16,30.670499416068196C18.509345666166766,30.904261084807533,20.704807736507973,29.182646296341833,22.94960113428533,28.037062256920493C25.305026972067942,26.83501923216993,27.9480992454963,25.9371171560285,29.487886187651547,23.787234721239656C31.07958327031756,21.56487427263202,32.2821733361882,18.639374670528454,31.570775476284325,16C30.859034583093415,13.359352633249115,27.611088246319245,12.40690421806244,25.85533554414446,10.310019370634112C24.46950576088682,8.654931230927211,23.938519308010594,6.460078420815628,22.35471367207356,4.99331305241601C20.511191633556855,3.286023836730156,18.484057581746235,1.560953355817575,16.000000000000004,1.1829746486619115C13.39678095473356,0.78686411708514,10.755054937914874,1.6537963122367507,8.421219621784989,2.87316732552552C6.029166847833836,4.12295551522943,3.5557405489324316,5.726387282375854,2.527839085063704,8.221844269195564C1.5212890918665072,10.665465862702755,2.89156901311549,13.360037613544474,3.014157671481371,15.999999999999998C3.130168701280313,18.498312316699778,1.9071698619548607,21.250293039316286,3.231347377198029,23.371985028963525C4.555961993814105,25.494377373714887,7.587757984730932,25.566817481553013,9.759797753067682,26.80834734119223C11.920376131135194,28.04332591274747,13.52210019246645,30.43966713106748,16,30.670499416068196" fill="#ccfbf1" strokewidth="0"/>
</g>
<g id="SVGRepo_tracerCarrier" stroke-linecap="round" stroke-linejoin="round"/>
<g id="SVGRepo_iconCarrier"> <style type="text/css"> .st0{fill:none;stroke:#14b8a6;stroke-width:2;stroke-linecap:round;stroke-linejoin:round;stroke-miterlimit:10;} </style> <path class="st0" d="M3,25l2.6-4.2c1.5-2.3,4-3.8,6.8-3.8H19v0c0,2.2-1.8,4-4,4h-2"/> <path class="st0" d="M16,21h7l1.2-1.6c1.1-1.5,2.9-2.4,4.8-2.4h0l-2.7,4.8c-1.4,2.6-4.2,4.2-7.1,4.2h0c-4.7,0-9.3,1.4-13.2,4l0,0"/> <path class="st0" d="M18,10L18,10L18,10c0-3.9,3.1-7,7-7h0v0C25,6.9,21.9,10,18,10z"/> <path class="st0" d="M18,13L18,13c-3.9,0-7-3.1-7-7v0h0C14.9,6,18,9.1,18,13L18,13z"/> <line class="st0" x1="18" y1="2" x2="18" y2="17"/> </g>
</svg>